<?xml version="1.0" standalone="no"?><!DOCTYPE svg PUBLIC "-//W3C//DTD SVG 1.1//EN" "http://www.w3.org/Graphics/SVG/1.1/DTD/svg11.dtd"><svg t="1606810287365" class="icon" viewBox="0 0 1024 1024" version="1.1" xmlns="http://www.w3.org/2000/svg" p-id="3763" xmlns:xlink="http://www.w3.org/1999/xlink" width="256" height="256"><defs><style type="text/css"></style></defs><path d="M513.3 883.1c-204.1 0-369.7-166.1-369.7-369.7s166.1-369.7 369.7-369.7c15.1 0 27.9 12.4 27.9 27.9s-12.4 27.9-27.9 27.9C339.9 199.5 199 340.4 199 513.8s140.9 314.3 314.3 314.3 314.3-140.9 314.3-314.3c0-15.1 12.4-27.9 27.9-27.9 15.6 0 27.9 12.4 27.9 27.9 0.1 203.2-166 369.3-370.1 369.3z" fill="#dbdbdb" p-id="3764"></path><path d="M624.5 486.8H402.6c-15.1 0-27.9-12.4-27.9-27.9 0-15.6 12.4-27.9 27.9-27.9h221.9c15.1 0 27.9 12.4 27.9 27.9 0 15.6-12.8 27.9-27.9 27.9z m0 107.1H402.6c-15.1 0-27.9-12.4-27.9-27.9 0-15.1 12.4-27.9 27.9-27.9h221.9c15.1 0 27.9 12.4 27.9 27.9-0.4 15.5-12.8 27.9-27.9 27.9z" fill="#dbdbdb" p-id="3765"></path><path d="M513.3 705.1c-15.1 0-27.9-12.4-27.9-27.9V455.3c0-15.1 12.4-27.9 27.9-27.9 15.1 0 27.9 12.4 27.9 27.9v221.9c0 15.5-12.3 27.9-27.9 27.9z" fill="#dbdbdb" p-id="3766"></path><path d="M513.3 468.1c-6.9 0-14.2-2.7-19.7-8.2l-91.5-91.5c-11-11-11-28.4 0-39.3 11-11 28.4-11 39.3 0l91.5 91.5c11 11 11 28.4 0 39.3-5.4 5.4-12.2 8.2-19.6 8.2z" fill="#dbdbdb" p-id="3767"></path><path d="M513.3 468.1c-6.9 0-14.2-2.7-19.7-8.2-11-11-11-28.4 0-39.3l91.5-91.5c11-11 28.4-11 39.3 0 11 11 11 28.4 0 39.3L533 459.8c-5.5 5.5-12.3 8.3-19.7 8.3z m361.5-185.8c11-11 11-28.4 0-39.3l-91.5-91.5c-11-11-28.4-11-39.3 0-11 11-11 28.4 0 39.3l91.5 91.5c5.5 5.5 12.4 8.2 19.7 8.2s14.6-3.2 19.6-8.2z" fill="#dbdbdb" p-id="3768"></path><path d="M783.7 373.8l91.5-91.5c11-11 11-28.4 0-39.3-11-11-28.4-11-39.3 0l-91.5 91.5c-11 11-11 28.4 0 39.3 5.5 5.5 12.4 8.2 19.7 8.2 6.8-0.4 14.1-3.2 19.6-8.2z" fill="#dbdbdb" p-id="3769"></path><path d="M878 262.6c0-15.1-12.4-27.9-27.9-27.9H665.2c-15.1 0-27.9 12.4-27.9 27.9 0 15.1 12.4 27.9 27.9 27.9h185.3c15.1-0.4 27.5-12.8 27.5-27.9z" fill="#dbdbdb" p-id="3770"></path></svg>