<?xml version="1.0" standalone="no"?><!DOCTYPE svg PUBLIC "-//W3C//DTD SVG 1.1//EN" "http://www.w3.org/Graphics/SVG/1.1/DTD/svg11.dtd"><svg t="1606287117127" class="icon" viewBox="0 0 1024 1024" version="1.1" xmlns="http://www.w3.org/2000/svg" p-id="6277" xmlns:xlink="http://www.w3.org/1999/xlink" width="256" height="256"><defs><style type="text/css"></style></defs><path d="M980.588653 541.022512s18.324877-43.082957 18.324878-69.644282c0-66.086526-59.458379-111.411356-129.931179-110.046737 0 0-133.68388-1.169673-150.108039-1.169673 38.111846-93.914997 46.884394-189.63324 32.263481-250.55371C735.785836 45.568512 696.211898 5.312265 637.533301 1.559564 559.750045-3.411546 508.333168 48.005331 506.676131 121.061158c-1.803246 81.09733-27.292371 149.718148-70.375327 211.223455-11.258103 16.131741-23.198515 30.996335-36.844701 46.445766-6.18952 7.018038-25.927752 27.97468-29.144352 32.166009-46.348294 60.481843-45.958403 96.400552-46.348294 101.469135v436.093094c0 9.01623 75.541383 75.005283 186.952739 75.005283 24.368188-0.682309 304.553615-0.097473 318.833373 0 71.106373-8.431393 114.57922-56.729142 114.57922-118.380658 0-27.584789-8.236448-45.227357-8.236447-45.227357s62.869925-21.492742 62.869925-94.889724c0-36.357337-24.514397-70.570273-24.514397-70.570273s24.465661-45.519775 24.465661-76.223692c0-58.288706-18.276141-77.149683-18.276142-77.149684z m-936.615677 6.530674a112.678502 112.678502 0 1 1 225.454476 0v360.697921a112.678502 112.678502 0 1 1-225.454476 0v-360.649184z" fill="#dbdbdb" p-id="6278"></path></svg>