<?xml version="1.0" standalone="no"?><!DOCTYPE svg PUBLIC "-//W3C//DTD SVG 1.1//EN" "http://www.w3.org/Graphics/SVG/1.1/DTD/svg11.dtd"><svg t="1606715116556" class="icon" viewBox="0 0 1331 1024" version="1.1" xmlns="http://www.w3.org/2000/svg" p-id="4055" xmlns:xlink="http://www.w3.org/1999/xlink" width="332.75" height="256"><defs><style type="text/css"></style></defs><path d="M1249.542092 379.469706l-297.617277 296.695861a54.465907 54.465907 0 0 1-76.887023 0c-2.559488-2.559488-5.630874-7.217756-6.654669-8.292742l-258.405918-258.917816-268.029595 267.210558a54.465907 54.465907 0 0 1-76.887022 0 54.056389 54.056389 0 0 1 0-76.579884l300.381524-300.791042a55.796841 55.796841 0 0 1 83.388122-5.118976c0.716657 0.716657 0.921416 1.638072 1.535693 2.405919l264.65107 263.780844 261.067786-261.272546c1.382124-1.842831 2.457109-3.327335 4.043991-4.914217a55.796841 55.796841 0 0 1 78.678665 0 55.233753 55.233753 0 0 1-9.214158 85.794041M1275.444111 1024H55.489702A55.284943 55.284943 0 0 1 0 968.715057V55.489702a55.438512 55.438512 0 0 1 110.979404 0V913.430114h1164.464707a55.284943 55.284943 0 0 1 39.211358 94.393921 55.540892 55.540892 0 0 1-39.211358 16.124775" p-id="4056" fill="#dbdbdb"></path></svg>