<?xml version="1.0" standalone="no"?><!DOCTYPE svg PUBLIC "-//W3C//DTD SVG 1.1//EN" "http://www.w3.org/Graphics/SVG/1.1/DTD/svg11.dtd"><svg t="1606454448979" class="icon" viewBox="0 0 1024 1024" version="1.1" xmlns="http://www.w3.org/2000/svg" p-id="4320" width="256" height="256" xmlns:xlink="http://www.w3.org/1999/xlink"><defs><style type="text/css"></style></defs><path d="M744.396055 467.72c-153.86 0-279.07 124.79-279.07 278.14S590.546055 1024 744.396055 1024s279.06-124.78 279.06-278.14-125.2-278.14-279.06-278.14z m98 312.72c21.12 0 30.17 7.52 30.17 21s-10.56 24.06-30.17 24.06h-72.36v3c0 30.07-10.56 45.11-33.18 45.11-21.12 0-30.17-15-30.17-45.11V824h-75.43c-21.12 0-31.71-10.48-31.71-24 1.51-13.54 12.07-21 33.19-21h75.43v-36.14h-75.4c-21.12 0-31.68-12-31.68-27.06 0-13.54 10.56-21.06 31.68-21.06h54.3L646.346055 630.1C632.766055 603 676.546055 580.48 691.596055 603c15.09 25.56 45.26 75.18 45.26 75.18S771.546055 624.08 788.136055 597c13.58-25.56 60.34 4.51 45.26 31.57l-45.26 67.66h54.31c21.12 0 30.17 7.51 30.17 21s-10.56 27.06-30.17 27.06h-72.41v36.08zM119.656055 208.76h419.56c31.18 0 56.53-33.76 56.53-75.42v-58c0.16-19.68-5.7-38.69-16.38-53.12C568.756055 8.08 554.316055 0.11 539.266055 0H119.696055C88.546055 0 63.166055 33.75 63.166055 75.36v58.09c-0.13 19.81 5.74 39 16.35 53.12s25.08 22.08 40.18 22.13zM467.366055 480.14a365.39 365.39 0 0 1 65.8-77.46V346.8c0.17-19.71-5.72-38.74-16.43-53.17-10.6-14.16-25-22.13-40.1-22.24H56.986055c-31.36 0.27-56.61 34-56.44 75.35v58c-0.13 19.92 5.74 39 16.34 53.12s25 22.13 40.1 22.29zM63.166055 618.13v58c-0.13 19.92 5.74 39 16.35 53.17s25.08 22.13 40.18 22.24h272.41c0-76.08 15.24-147.34 41.91-208.76H119.656055C104.416055 543 89.916055 551 79.546055 565c-10.6 14.16-16.47 33.19-16.39 53.11zM88.346055 814.16c-31.18 0-56.53 33.75-56.53 75.36v58c-0.09 19.86 5.78 39 16.38 53.11s25 22.14 40.15 22.25h378.93c-38.44-60.24-63.19-132.36-71.64-208.76z" p-id="4321"></path></svg>