<?xml version="1.0" standalone="no"?><!DOCTYPE svg PUBLIC "-//W3C//DTD SVG 1.1//EN" "http://www.w3.org/Graphics/SVG/1.1/DTD/svg11.dtd"><svg t="1606454577094" class="icon" viewBox="0 0 1024 1024" version="1.1" xmlns="http://www.w3.org/2000/svg" p-id="4674" xmlns:xlink="http://www.w3.org/1999/xlink" width="256" height="256"><defs><style type="text/css"></style></defs><path d="M121.6 368c3.2-12.8 12.8-19.2 25.6-19.2 9.6 0 22.4 6.4 25.6 16 6.4 9.6 3.2 22.4-3.2 32C166.4 400 166.4 400 163.2 403.2L147.2 425.6l22.4 12.8c12.8 6.4 22.4 16 38.4 25.6 0 0 28.8 19.2 38.4 25.6 16 9.6 25.6 16 38.4 25.6 22.4 12.8 32 19.2 44.8 28.8 19.2 12.8 41.6 6.4 54.4-12.8 38.4-73.6 80-153.6 131.2-249.6l12.8-22.4-22.4-9.6c-12.8-6.4-19.2-16-19.2-28.8 0-9.6 3.2-16 9.6-22.4 12.8-12.8 28.8-9.6 41.6 3.2 12.8 16 9.6 32-16 51.2L499.2 256l9.6 19.2C512 281.6 512 281.6 515.2 284.8c9.6 16 16 28.8 28.8 54.4l0 0c12.8 25.6 22.4 44.8 48 89.6 22.4 44.8 35.2 64 48 89.6 12.8 25.6 35.2 32 57.6 16 19.2-12.8 38.4-22.4 73.6-48 38.4-22.4 54.4-35.2 73.6-48 0 0 0 0 3.2 0 3.2-3.2 3.2-3.2 6.4-3.2l25.6-16-19.2-22.4c-6.4-6.4-9.6-12.8-9.6-22.4 0-16 9.6-28.8 22.4-32 16-3.2 28.8 6.4 32 22.4 0 0 0 3.2 0 3.2 0 0 0 0 0 0 0 0 0 0 0 3.2L928 368l-25.6 0 0 19.2L928 387.2l-22.4-6.4c-6.4 19.2-16 25.6-32 25.6l-16 0-6.4 16c-3.2 6.4-3.2 6.4-3.2 9.6-12.8 41.6-22.4 76.8-44.8 153.6-6.4 25.6-6.4 25.6-16 51.2-12.8 38.4-19.2 70.4-28.8 102.4 0 3.2 3.2 0 3.2 0L262.4 739.2c-3.2 0 3.2 3.2 0 0-9.6-35.2-19.2-64-35.2-124.8-16-64-25.6-89.6-35.2-124.8-3.2-9.6-6.4-19.2-9.6-35.2-3.2-6.4-9.6-28.8-9.6-35.2l0 0L169.6 406.4 150.4 406.4c-12.8 0-22.4-3.2-28.8-16 0 0 0-3.2-3.2-6.4 0 0 0 0 0 0 0-3.2 0-3.2 0-3.2L96 387.2l22.4 0C121.6 380.8 121.6 377.6 121.6 368L121.6 368 96 368l22.4 6.4c0-3.2 0-3.2 0-3.2C121.6 371.2 121.6 371.2 121.6 368 121.6 371.2 121.6 371.2 121.6 368L121.6 368zM76.8 352C76.8 355.2 76.8 355.2 76.8 352c0 3.2 0 3.2 0 3.2 0 3.2 0 3.2 0 3.2l0 3.2 0 3.2 0 0c0 9.6 0 12.8 0 19.2l0 3.2 0 3.2c0 3.2 0 3.2 0 3.2 0 0 0 0 0 0 3.2 6.4 3.2 9.6 6.4 12.8 16 28.8 38.4 41.6 70.4 41.6L153.6 432 128 438.4l0 0c0 3.2 6.4 28.8 9.6 35.2 3.2 12.8 6.4 22.4 9.6 32 9.6 35.2 19.2 64 35.2 124.8 16 64 25.6 89.6 35.2 124.8 6.4 22.4 19.2 35.2 44.8 35.2l499.2 0c25.6 0 38.4-9.6 44.8-35.2 9.6-32 19.2-64 28.8-102.4 6.4-25.6 6.4-25.6 16-51.2 22.4-76.8 32-112 44.8-153.6 0-3.2 0-3.2 3.2-9.6l-22.4-6.4 0 22.4c38.4 0 67.2-22.4 76.8-60.8l0-6.4L953.6 368 953.6 364.8l0-3.2c0 0 0 0 0-3.2 0 0 0 0 0 0 0 0 0 0 0 0-12.8-38.4-48-60.8-86.4-54.4-38.4 6.4-64 41.6-60.8 80 0 19.2 9.6 38.4 25.6 51.2l16-16-12.8-19.2c-3.2 0-3.2 3.2-6.4 3.2 0 0 0 0 0 0C800 416 784 425.6 748.8 448c-38.4 22.4-54.4 35.2-73.6 48 0 0 0 0 3.2 3.2 3.2 0 6.4 3.2 3.2 0-12.8-25.6-22.4-44.8-48-89.6-22.4-44.8-35.2-64-48-89.6l0 0c-16-28.8-22.4-38.4-28.8-54.4-3.2-3.2-3.2-3.2-6.4-9.6l-6.4 32c44.8-32 57.6-80 25.6-118.4C544 128 489.6 124.8 457.6 156.8c-16 16-22.4 35.2-22.4 57.6 0 32 19.2 54.4 44.8 67.2l9.6-22.4-22.4-12.8c-51.2 96-92.8 176-131.2 249.6 3.2-3.2 12.8-6.4 16-3.2-12.8-6.4-22.4-12.8-41.6-25.6C300.8 464 288 454.4 272 448 265.6 441.6 236.8 422.4 233.6 422.4 217.6 412.8 208 406.4 195.2 396.8L182.4 419.2l19.2 16c0 0 3.2-3.2 3.2-6.4 19.2-25.6 25.6-57.6 9.6-86.4C201.6 313.6 172.8 297.6 144 300.8 112 300.8 86.4 323.2 76.8 352L76.8 352z" p-id="4675" fill="#dbdbdb"></path><path d="M256 854.4C256 841.6 265.6 832 278.4 832l467.2 0c12.8 0 22.4 9.6 22.4 22.4 0 12.8-9.6 22.4-22.4 22.4L278.4 876.8C265.6 880 256 867.2 256 854.4z" p-id="4676" fill="#dbdbdb"></path></svg>