<?xml version="1.0" standalone="no"?><!DOCTYPE svg PUBLIC "-//W3C//DTD SVG 1.1//EN" "http://www.w3.org/Graphics/SVG/1.1/DTD/svg11.dtd"><svg t="1606872876463" class="icon" viewBox="0 0 1024 1024" version="1.1" xmlns="http://www.w3.org/2000/svg" p-id="5401" xmlns:xlink="http://www.w3.org/1999/xlink" width="256" height="256"><defs><style type="text/css"></style></defs><path d="M968.47872 547.259733c-0.24576 2.973013-1.19808 9.024853-4.881067 14.70464 0 0 21.480107 4.512427 32.453974-13.738666 0.003413-0.003413-15.875413 7.918933-27.572907-0.965974z m-25.419093-16.950613s-10.09664-17.5104 10.10688-27.613867c0 0-33.08544-4.543147-32.82944 39.144107 0 0 14.8992-1.088853 22.72256-11.53024z m14.813866-23.57248c0.979627 34.19136-34.874027 47.12448-54.644053 51.65056-26.5728-125.310293-140.817067-226.7648-290.525867-262.628693 28.258987-28.716373 45.704533-68.11648 45.704534-111.592107 0-87.872853-71.2192-159.102293-159.074987-159.102293S340.258133 96.29696 340.258133 184.1664c0 42.328747 16.530773 80.7936 43.482454 109.298347-46.1312 10.028373-89.094827 26.210987-127.37536 47.428266-14.097067-6.63552-46.370133-25.019733-52.647254-56.408746 0 0-40.15104 23.852373-9.02144 98.205013-55.64416 45.806933-94.931627 104.372907-110.329173 169.690453h-30.593707a28.637867 28.637867 0 0 0-28.634453 28.64128v130.62144a28.634453 28.634453 0 0 0 28.634453 28.637867h54.234454c31.26272 61.037227 84.55168 112.98816 151.975253 149.53472a105.00096 105.00096 0 0 0-2.22208 21.53472c0 48.523947 32.83968 87.8592 73.345707 87.8592 32.535893 0 60.105387-25.388373 69.700266-60.525227a517.495467 517.495467 0 0 0 92.310187 8.250027c32.79872 0 64.699733-3.058347 95.310507-8.799573 16.319147 45.34272 56.593067 73.151147 93.3888 62.948693a57.070933 57.070933 0 0 0 8.321706-3.048107 40.584533 40.584533 0 0 0 8.485547-4.68992c0.18432-0.119467 0.354987-0.249173 0.535893-0.372053l0.34816-0.24576c27.194027-18.8928 39.49568-60.53888 27.8016-102.73792-0.064853-0.218453-0.126293-0.416427-0.187733-0.638293 109.861547-59.856213 181.99552-160.682667 181.99552-274.98496 0-5.46816-0.177493-10.891947-0.498347-16.288427 83.319467-30.76096 49.2544-91.3408 49.2544-91.3408z m-744.73472 25.58976c-20.824747 0-37.707093-16.882347-37.707093-37.710507 0-20.834987 16.882347-37.71392 37.707093-37.71392s37.707093 16.882347 37.707094 37.71392c0 20.82816-16.882347 37.710507-37.707094 37.710507z m284.996267-240.769707c-60.5184 0-109.585067-49.073493-109.585067-109.612373 0-60.532053 49.066667-109.605547 109.585067-109.605547 60.52864 0 109.591893 49.073493 109.591893 109.605547 0.003413 60.535467-49.05984 109.612373-109.591893 109.612373z m35.525973-186.289493l-26.99264 55.41888a112.848213 112.848213 0 0 0-5.277013 12.383573h-0.406187a188.84608 188.84608 0 0 0-5.072213-11.874986l-26.89024-55.924054h-22.6304l38.46144 71.758507h-31.45728v15.834453h37.341867v22.02624h-37.341867v15.93344h37.341867v31.665494h19.787093v-31.665494h36.22912v-15.93344h-36.22912v-22.02624h36.22912v-15.834453h-30.846293L554.871467 105.2672h-21.210454z" p-id="5402" fill="#dbdbdb"></path></svg>