<?xml version="1.0" standalone="no"?><!DOCTYPE svg PUBLIC "-//W3C//DTD SVG 1.1//EN" "http://www.w3.org/Graphics/SVG/1.1/DTD/svg11.dtd"><svg t="1606715972796" class="icon" viewBox="0 0 1024 1024" version="1.1" xmlns="http://www.w3.org/2000/svg" p-id="4882" xmlns:xlink="http://www.w3.org/1999/xlink" width="256" height="256"><defs><style type="text/css"></style></defs><path d="M832.837 935.886l-4.099-2.522c-34.405 41.036-78.281 27.467-178.336 22.727l3.475-556.773 179.913 2.524-0.951 534.046zM440.195 259.491l149.292 5.051-8.205 695.344-144.246-4.11 3.159-696.285zM374.858 934.941l-4.419-1.577c-23.673 29.359 29.038 22.411-41.348 26.194l-136.668-3.785 3.468-556.459 179.913 2.207-0.946 533.418zM656.72 268.015c72.908-6.948 184.012-15.468 244.297 8.519l-5.997 57.446-239.883-3.79 1.583-62.176zM370.754 267.385l-2.524 65.335-239.883 0.946-1.577-57.446c57.756-24.303 168.544-14.202 243.982-8.836v0zM575.284 187.529c26.827-64.39 85.218-117.731 178.647-112.365-25.879 69.755-85.219 113.94-178.647 112.365v0zM450.611 189.421c-103.529-3.785-153.082-44.186-178.021-111.735 92.482-12.308 153.397 47.66 178.021 111.735v0zM284.899 196.047l-231.042-0.946c1.898 283.121-5.051 180.544 70.386 218.732l0.631 610.121h774.566l1.261-610.121c29.668-15.148-20.197 11.363 28.093-9.15 2.522-1.261 7.257-3.158 10.096-4.42l31.252-204.846-236.724-0.631c38.19-42.924 90.269-69.755 80.167-159.393-59.34-37.242-90.9-46.4-171.705-11.363-70.386 30.935-87.115 68.81-129.725 113.632-196.638-219.37-313.423-130.677-307.111-46.4 5.682 78.591 47.029 61.546 79.852 104.787v0z" p-id="4883" fill="#dbdbdb"></path></svg>