<?xml version="1.0" standalone="no"?><!DOCTYPE svg PUBLIC "-//W3C//DTD SVG 1.1//EN" "http://www.w3.org/Graphics/SVG/1.1/DTD/svg11.dtd"><svg t="1606279225138" class="icon" viewBox="0 0 1024 1024" version="1.1" xmlns="http://www.w3.org/2000/svg" p-id="4846" xmlns:xlink="http://www.w3.org/1999/xlink" width="256" height="256"><defs><style type="text/css"></style></defs><path d="M274.432 304.128c25.6 76.8 96.256 76.8 121.344 0 8.192-4.608 16.896-17.408 18.432-28.16 1.536-11.264 0.512-26.112-10.752-26.112-2.56-35.84-22.528-66.56-67.072-66.56-44.032 0-66.56 26.624-69.12 66.56-11.264 0-12.288 14.848-10.752 26.112 1.024 10.752 9.216 23.552 17.92 28.16z" p-id="4847" fill="#dbdbdb"></path><path d="M437.248 745.472v-26.624c29.696 0 53.248-24.064 53.248-53.248v-1.536l207.36-207.36c5.632-5.632 5.632-14.848 0-20.48s-14.848-5.632-20.48 0l-187.392 187.392v-176.64c0-38.4-28.16-71.68-67.072-79.872l-28.672-6.144-59.904 118.784-59.904-118.784-28.672 6.144c-39.424 8.192-67.072 41.472-67.072 79.872V665.6c0 29.696 24.064 53.248 53.248 53.248v26.624h205.312z" p-id="4848" fill="#dbdbdb"></path><path d="M10.24 561.152c0 81.92 66.56 148.48 148.48 148.48h1.536c-7.68-12.8-12.288-27.648-12.288-44.032v-20.48c-41.984-5.632-74.24-40.96-74.24-83.968v-403.456c0-47.104 38.4-84.992 84.992-84.992h708.096c47.104 0 84.992 38.4 84.992 84.992v403.456c0 47.104-38.4 84.992-84.992 84.992H552.96l-31.744 31.744c-2.048 11.776-6.656 22.016-12.288 31.744h357.888c81.92 0 148.48-66.56 148.48-148.48v-403.456c0-81.92-66.56-148.48-148.48-148.48H158.72c-81.92 0-148.48 66.56-148.48 148.48v403.456zM217.6 797.696h-110.592c-53.76 0-97.28 43.52-97.28 97.28v128h304.64v-128c0.512-53.76-43.008-97.28-96.768-97.28zM569.856 797.696h-110.592c-53.76 0-97.28 43.52-97.28 97.28v128h304.64v-128c0-53.76-43.52-97.28-96.768-97.28zM921.6 797.696h-110.592c-53.76 0-97.28 43.52-97.28 97.28v128H1018.368v-128c0-53.76-43.52-97.28-96.768-97.28z" p-id="4849" fill="#dbdbdb"></path></svg>